# xmcd
#
# Track frame offsets: 
#        150
#        15739
#        32120
#        53034
#        80339
#        103510
#        122377
#        142016
#        162476
#        184999
#        205696
#
# Disc length: 3032 seconds
#
# Revision: 3
# Processed by: cddbd v1.4PL0 Copyright (c) Steve Scherf et al.
# Submitted via: ExactAudioCopy v0.90b4
#
DISCID=8e0bd60b
DTITLE=alanis morisette - under rug swept
DYEAR=2001
DGENRE=freerock
TTITLE0=21 Things
TTITLE1=Narcissus
TTITLE2=Hands Clean
TTITLE3=Flinch
TTITLE4=So Unsexy
TTITLE5=Precious Illusion
TTITLE6=That Particular Time
TTITLE7=A man
TTITLE8=You Owe Me Nothing
TTITLE9=Surrendering
TTITLE10=Utopia
EXTD=
EXTT0=
EXTT1=
EXTT2=
EXTT3=
EXTT4=
EXTT5=
EXTT6=
EXTT7=
EXTT8=
EXTT9=
EXTT10=
PLAYORDER=
